<svg width="100" height="100" viewBox="0 0 100 100" fill="none" xmlns="http://www.w3.org/2000/svg">
<circle cx="68" cy="68" r="31" fill="white" stroke="#341D52" stroke-width="2"/>
<rect x="69.1294" y="36" width="7.52941" height="2.25882" transform="rotate(90 69.1294 36)" fill="#341D52"/>
<rect x="66.8706" y="100" width="7.52941" height="2.25882" transform="rotate(-90 66.8706 100)" fill="#341D52"/>
<rect x="36" y="66.8706" width="7.52941" height="2.25882" fill="#341D52"/>
<rect x="100" y="69.1294" width="7.52941" height="2.25882" transform="rotate(-180 100 69.1294)" fill="#341D52"/>
<path d="M68.981 69.1316C68.5399 69.5726 67.8248 69.5726 67.3838 69.1316L57.5342 59.282L59.1314 57.6847L68.981 67.5343C69.4221 67.9754 69.4221 68.6905 68.981 69.1316V69.1316Z" fill="#341D52"/>
<path d="M86.801 51.3008L68.9653 69.1365C68.5242 69.5776 67.8091 69.5776 67.3681 69.1365V69.1365C66.927 68.6954 66.927 67.9803 67.3681 67.5393L85.2038 49.7036L86.801 51.3008Z" fill="#341D52"/>
<circle cx="32" cy="32" r="32" fill="#341D52"/>
<rect x="33.1294" width="5.27059" height="2.25882" transform="rotate(90 33.1294 0)" fill="white"/>
<rect x="30.8706" y="64" width="5.27059" height="2.25882" transform="rotate(-90 30.8706 64)" fill="white"/>
<rect y="30.8706" width="5.27059" height="2.25882" fill="white"/>
<rect x="64" y="33.1294" width="5.27059" height="2.25882" transform="rotate(-180 64 33.1294)" fill="white"/>
<path d="M32.8306 33.1316C32.3895 33.5726 31.6744 33.5726 31.2334 33.1316L21.3838 23.282L22.981 21.6848L32.8306 31.5343C33.2717 31.9754 33.2717 32.6905 32.8306 33.1316V33.1316Z" fill="white"/>
<path d="M50.6506 15.3009L32.8149 33.1366C32.3738 33.5777 31.6587 33.5777 31.2177 33.1366V33.1366C30.7766 32.6956 30.7766 31.9805 31.2177 31.5394L49.0534 13.7037L50.6506 15.3009Z" fill="white"/>
</svg>
